<?xml version="1.0" encoding="UTF-8" standalone="no"?>
<svg
    xmlns="http://www.w3.org/2000/svg"
    viewBox="-150 -150 1300 1300"
    version="1.1">

  <style type="text/css">
    .room {
      fill: #ffffff;
      stroke: #000000;
      stroke-width: 2;
    }
    .walls {
      fill: #444444;
      stroke: #000000;
      stroke-width: 2;
    }
    .door {
      fill: #eeeeee;
      stroke: #000000;
      stroke-width: 2;
    }
    .door-open {
      fill: #cccccc;
      stroke: #000000;
      stroke-width: 2;
    }
    .window {
      fill: #b2ffff;
      stroke: #000000;
      stroke-width: 2;
    }
    .windowsill {
      fill: #91a3b0;
      stroke: #000000;
      stroke-width: 2;
    }
    .room-label {
      font: 14px sans-serif;
      text-anchor: middle;
      fill: #222222;
      user-select: none;
      pointer-events: none;
    }
    .furniture-low {
      fill: #91a3b0;
      stroke: #000000;
      stroke-width: 2;
    }
    .furniture-tall {
      fill: #536878;
      stroke: #000000;
      stroke-width: 2;
    }
    .furniture-sitting {
      fill: #8c92ac;
      stroke:rgb(13, 9, 9);
      stroke-width: 2;
    }
    .heater {
      fill: #ffffe0;
      stroke: #000000;
      stroke-width: 2;
    }
  </style>

  <g id="floor">
    <polygon class="walls"  points="
      -50,-50
      1110,-50
      1110,560
      830,560
      830,952
      -50,952
    " />
  </g>


  <g id="room-hall" transform="translate(222,310)">
    <polygon class="room" points="
      0,0
      0,233
      868,233
      868,100
      470,100
      470,0

    " />
    <polygon class="door-open"  points="
      868,110
      888,110
      888,210
      868,210
    " />
    <polygon class="door"  points="
      863,110
      873,110
      873,210
      863,210
    " transform="rotate(-95, 873,210)" />
    <polygon class="furniture-tall"  points="
      220,0
      470,0
      470,100
      220,100
    " />
    <polygon class="furniture-sitting" points="
      120,0
      220,0
      220,100
      170,100
      170,50
      120,50
    " />
  </g>

  <g id="room-large" transform="translate(0,0)">
    <polygon class="room"  points="
      0,0
      810,0
      810,400
      700,400
      700,300
      0,300
    " />
    <polygon class="window"  points="
      100,0
      270,0
      270,-50
      100,-50
    " />
    <polygon class="windowsill"  points="
      100,0
      270,0
      270,15
      100,15
    " />
    <polygon class="window"  points="
      320,0
      490,0
      490,-50
      320,-50
    " />
    <polygon class="windowsill"  points="
      320,0
      490,0
      490,15
      320,15
    " />
    <polygon class="window"  points="
      540,0
      710,0
      710,-50
      540,-50
    " />
    <polygon class="windowsill"  points="
      540,0
      710,0
      710,15
      540,15
    " />
    <polygon class="door"  points="
      705,400
      800,400
      800,410
      705,410
    " />
    <polygon class="door-open"  points="
      705,400
      800,400
      800,410
      705,410
    "  transform="rotate(90, 800,410)"/>
    <polygon class="furniture-low" id="desk"  points="
      0,0
      0,200
      75,200
      75,0
    " />
    <polygon class="furniture-tall" id="rack"  points="
      0,250
      0,300
      200,300
      200,250
    " />
    <polygon class="heater"  points="
      120,0
      250,0
      250,10
      120,10
    " />
    <polygon class="heater"  points="
      340,0
      470,0
      470,10
      340,10
    " />
    <polygon class="heater"  points="
      560,0
      690,0
      690,10
      560,10
    " />
  </g>


  <g id="room-bedroom" transform="translate(820,0)">
    <polygon class="room" points="
      0,0
      270,0
      270,340
      150,340
      150,400
      0,400
    " />
    <polygon class="furniture-tall" id="bedroom-wardrobe"  points="
      160,350
      160,410
      270,410
      270,350
    " />
    <polygon class="window"  points="
      50,0
      220,0
      220,-50
      50,-50
    " />
    <polygon class="windowsill"  points="
      50,0
      220,0
      220,15
      50,15
    " />
    <polygon class="door"  points="
      40,400
      135,400
      135,410
      40,410
    " />
    <polygon class="door-open"  points="
      40,400
      135,400
      135,410
      40,410
    "  transform="rotate(93, 135,410)"/>
    <polygon class="heater"  points="
      128,0
      203,0
      203,11
      128,11
    " />
  </g>

  <g id="room-bathroom" transform="translate(0.0,320)">
    <polygon class="room" points="
      0,0
      212,0
      212,215
      119,215
      119,161
      0,161
    " />
    <polygon class="door"  points="
      212,70
      223,70
      223,155
      212,155
    " />
    <polygon class="door-open"  points="
      223,75
      218,75
      218,155
      223,155
    "  transform="rotate(-170, 218,75)"/>
    <polygon class="furniture-tall" id="bathroom-geberit"  points="
      119,215
      119,195
      212,195
      212,215
    " />
    <polygon class="furniture-sitting" id="bathroom-toilet"  points="
      148.5,195
      184,195
      184,142
      148.5,142
    " />
    <polygon class="furniture-sitting" id="bathroom-bath"  points="
      0,0
      70,0
      70,161
      0,161
    " />
    <polygon class="furniture-low" id="bathroom-sink"  points="
      81.5,0
      141.5,0
      141.5,39
      81.5,39
    " />
    <polygon class="furniture-low" id="bathroom-waschingmachine"  points="
      150,10
      210,10
      210,70
      150,70
    " />
    <polygon class="heater"  points="
      160,0
      200,0
      200,10
      160,10
    " />
  </g>

  <g id="room-kitchen" transform="translate(0,552)">
    <polygon class="room" points="
      0,0
      373.5,0
      373.5,350
      0,350
    " />
    <polygon class="window"  points="
      0,120
      0,290
      -50,290
      -50,120
    " />
    <polygon class="door"  points="
      278,0
      278,-9
      373.5,-9
      373.5,0
    " />
    <polygon class="furniture-tall" id="kitchen-builtin"  points="
      0,0
      278,0
      278,60
      60,60
      60,350
      0,350
    " />
    <polygon class="heater"  points="
      0,140
      0,270
      10,270
      10,140
    " />
  </g>

  <g id="room-living" transform="translate(383.5,552)">
    <polygon class="room" points="
      0,0
      400,0
      400,350
      0,350
    " />
    <polygon class="door"  points="
      278,0
      278,-9
      373.5,-9
      373.5,0
    " />
    <polygon class="door-open"  points="
      278,0
      278,-9
      373.5,-9
      373.5,0
    " transform="rotate(-90, 373.5,-9)"/>
    <polygon class="heater"  points="
      50,0
      200,0
      200,10
      50,10
    " />
  </g>


  <g id="room-balcony" transform="translate(150,952)">
    <polygon class="room" points="
      0,0
      630,0
      630,150
      0,150
    " />
    <polygon class="window"  points="
      30,0
      200,0
      200,-50
      30,-50
    " />
    <polygon class="window"  points="
      260,0
      430,0
      430,-50
      260,-50
    " />
    <polygon class="window"  points="
      440,0
      610,0
      610,-50
      440,-50
    " />
  </g>


</svg>